<svg version="1.2" xmlns="http://www.w3.org/2000/svg" viewBox="0 0 1342 258" width="520" height="100">
	<title>Proyecto nuevo</title>
	<style>
		.s0 { fill: #1cce96 } 
		.s1 { fill: #000000 } 
	</style>
	<g id="logo">
		<path id="Forma 1" fill-rule="evenodd" class="s0" d="m199.8 144.3q2.8 5.5 8.9 5.5h47.8q-0.7 0.9-1.5 1.6-0.8 0.8-1.4 1.2l-0.5 0.6-97.7 93.7q-2.8 2.8-6.9 2.8-4.1 0-6.9-2.8l-97.8-94q-0.8-0.3-3.3-3.1h57.8q3.5 0 6.2-2.1 2.8-2.1 3.5-5.4l11-43.8 29.8 104.1q1 3.1 3.6 5.1 2.7 2 6.1 2 3.3 0 6-2 2.7-2 3.6-5.1l22.9-75.7 8.8 17.4zm69.3-115q-19.9-19.3-55.1-19.3-9.7 0-19.8 3.4-10.1 3.3-18.8 9-8.7 5.7-15 10.7-6.3 5-11.9 10.6-5.6-5.6-11.9-10.6-6.3-5-15-10.7-8.7-5.7-18.8-9-10.1-3.4-19.8-3.4-35.2 0-55.1 19.3-19.9 19.4-19.9 53.7 0 22.7 16.2 46.8h66.3l18.2-72.4q0.8-3.2 3.4-5.3 2.7-2.2 6.1-2.2 3.5 0 6.2 2.1 2.8 2 3.7 5.1l30.7 107.1 20.3-67.1q1.7-6.4 8.8-7.2 2.9-0.3 5.7 1.2 2.7 1.6 4 4.3l17.4 34.4h57.8q16.2-24.1 16.2-46.8 0-34.3-19.9-53.7z"/>
		<path id="PACIENTE PRO" class="s1" aria-label="PACIENTE PRO"  d="m309.6 173h6.1v-34.6h19.7c17.1 0 30.4-11.1 30.4-25.1 0-13.9-12.4-24.7-28.3-24.7h-27.9zm6.1-40.8v-37.5h22.4c11.8 0 21.6 8.4 21.6 18.6 0 10.3-10.8 18.9-23.9 18.9zm73.1 40.8h6.1l10.4-28.2h39.9l10.6 28.2h6.5l-31.8-84.5h-10.2zm54.1-34.3h-35.2l16.2-44h2.2zm105.9-29.2c-3.9-18.2-22.2-22.8-32.1-22.8-10 0-18.9 3.9-25.6 11.1-6.5 6.9-10.7 17.4-10.7 26.5v12.5c0 20.2 18.5 38.7 38.9 38.7 9.6 0 18.7-3.8 26.1-10.7 3.9-3.6 5.7-6.1 5.7-7.6 0-1.7-1.2-2.9-3-2.9-1.1 0-1.7 0.3-2.7 1.5-8.1 9.6-15.8 13.5-26.1 13.5-17.7 0-32.7-15.4-32.7-33.4v-10.7c0-17.8 13.5-32.4 30.1-32.4 13.4 0 25.4 8 26 17.1 0.1 2.4 1.2 3.6 3 3.6 2.1 0 3.1-1.3 3.1-4zm54-20.9v84.5h6.2v-84.5zm123 6.2v-6.2h-56.3v84.5h59.4v-6.2h-53.2v-34.6h27.9v-6.2h-27.9v-31.3zm30.6 78.3h6.1v-75.6l45.8 75.6h7.8v-84.5h-6.2v75.6l-45.7-75.6h-7.8zm85.3-84.4v6.1h31.2v78.3h6.2v-78.3h31v-6.1zm154.1 6.1v-6.1h-56.3v84.4h59.4v-6.1h-53.2v-34.7h27.9v-6.1h-27.9v-31.4zm114.2-9.1h-32.7v87.4h15v-30h14.7c13.9 0 21.4-2.5 28-9.9 4.8-5.2 7.5-12.3 7.5-19.2 0-16.6-13.5-28.3-32.5-28.3zm-17.7 15h17.7c10.3 0 16.6 5.2 16.6 13.8 0 8.4-6.3 13.6-16.6 13.6h-17.7zm149.4 72.5c-7.1-15-13.8-26.4-26.4-38.1 10.9-6 16.2-13.2 16.2-22.7 0-15.7-13.5-26.7-33-26.7h-31.2v87.5h15v-33.3h14.4c6.3 2.2 20.1 18.7 27.6 33.3zm-59.4-48.3v-24.2h16.8c9.6 0 16.5 4.8 16.5 11.3 0 7.5-9.3 12.9-21.9 12.9zm105.9-41.3c-23.1 0-41.9 20.6-41.9 45.8 0 25.3 18.8 45.9 41.9 45.9 22.8 0 41.8-20.6 41.8-45.2 0-14.4-4.6-25.9-14.1-34.9-7.9-7.5-17.7-11.6-27.7-11.6zm0 15c14.8 0 26.8 14 26.8 31.2 0 16.5-12.3 30.5-26.8 30.5-14.7 0-26.9-14-26.9-30.9 0-16.8 12.2-30.8 26.9-30.8z"/>
	</g>
</svg>